<svg width="28" height="28" viewBox="0 0 28 28" fill="none" xmlns="http://www.w3.org/2000/svg">
<g clip-path="url(#clip0_53_1116)">
<path d="M13.9999 0C9.81386 0.00514063 6.42164 3.3973 6.4165 7.58335V12.25C6.4165 12.5722 6.67769 12.8334 6.99986 12.8334H9.33321C9.65537 12.8334 9.91656 12.5722 9.91656 12.25V7.58335C9.9165 5.32815 11.7447 3.5 13.9999 3.5C16.255 3.5 18.0832 5.32815 18.0832 7.58335V12.25C18.0832 12.5722 18.3444 12.8334 18.6666 12.8334H20.9999C21.322 12.8334 21.5832 12.5722 21.5832 12.25V7.58335C21.5781 3.3973 18.1859 0.00514063 13.9999 0Z" fill="black"/>
<path d="M7.00014 11.6667H21.0001C22.611 11.6667 23.9168 12.9726 23.9168 14.5834V25.0834C23.9168 26.6943 22.611 28.0001 21.0001 28.0001H7.00014C5.38932 28.0001 4.0835 26.6943 4.0835 25.0835V14.5835C4.0835 12.9726 5.38932 11.6667 7.00014 11.6667Z" fill="#EA7F23"/>
<path d="M16.9168 18.0833C16.9236 16.4725 15.6233 15.1611 14.0125 15.1543C12.4017 15.1475 11.0903 16.4478 11.0835 18.0587C11.0788 19.1721 11.7084 20.191 12.7063 20.6849L12.256 23.8349C12.2109 24.1539 12.4329 24.4491 12.7519 24.4942C12.7789 24.498 12.8062 24.4999 12.8335 24.4999H15.1668C15.489 24.5032 15.7528 24.2447 15.756 23.9225C15.7563 23.8928 15.7544 23.8631 15.7501 23.8338L15.2998 20.6838C16.2855 20.1905 16.9104 19.1854 16.9168 18.0833Z" fill="black"/>
</g>
<defs>
<clipPath id="clip0_53_1116">
<rect width="28" height="28" fill="white"/>
</clipPath>
</defs>
</svg>
