<svg width="207" height="182" viewBox="0 0 207 182" fill="none" xmlns="http://www.w3.org/2000/svg">
<g clip-path="url(#clip0_77_26693)">
<path d="M155.69 47.5766V25.7188H107.497H99.8888H51.7158V47.5766C51.7158 47.5766 52.0535 74.1724 88.5657 92.9845L89.9165 93.6614C89.9165 93.6614 55.7683 111.12 51.7158 137.198V162.44H99.9087H107.517H155.71V137.198C151.657 111.1 117.509 93.6614 117.509 93.6614L118.86 92.9845C155.352 74.1724 155.69 47.5766 155.69 47.5766Z" stroke="#F2A93C" stroke-width="7.17578" stroke-miterlimit="10" stroke-linecap="round" stroke-linejoin="round"/>
<path d="M45.2002 9.11719H162.186" stroke="#F2A93C" stroke-width="7.17578" stroke-miterlimit="10" stroke-linecap="round" stroke-linejoin="round"/>
<path d="M45.2002 180.914H162.186" stroke="#F2A93C" stroke-width="7.17578" stroke-miterlimit="10" stroke-linecap="round" stroke-linejoin="round"/>
<path d="M140.136 52.6562H67.2705C67.2705 52.6562 71.1641 71.2892 100.922 86.7171V125.337C100.922 125.337 70.6675 144.308 70.151 149.564V162.443H140.136V150.24C140.136 150.24 129.985 137.699 107.497 126.352V87.8917C107.497 87.8917 134.554 70.4531 140.136 52.6562Z" fill="#3C7C4E"/>
</g>
<defs>
<clipPath id="clip0_77_26693">
<rect width="206.355" height="181.087" fill="white"/>
</clipPath>
</defs>
</svg>
