<svg width="205" height="182" viewBox="0 0 205 182" fill="none" xmlns="http://www.w3.org/2000/svg">
<path d="M123.805 19.6087H107.339C106.87 12.8765 100.805 7.54688 93.3703 7.54688C85.9353 7.54688 79.8709 12.8765 79.4015 19.6087H62.9355C59.3682 19.6087 56.458 22.4886 56.458 26.0604V34.6626C56.458 38.2157 59.3494 41.1143 62.9355 41.1143H123.824C127.391 41.1143 130.301 38.2344 130.301 34.6626V26.0604C130.283 22.4886 127.391 19.6087 123.805 19.6087ZM93.3703 23.0683C89.8593 23.0683 87.0055 20.338 87.0055 16.9906C87.0055 13.6432 89.8593 10.913 93.3703 10.913C96.8813 10.913 99.7352 13.6432 99.7352 16.9906C99.7352 20.338 96.8813 23.0683 93.3703 23.0683Z" fill="#F2A93C"/>
<path d="M51.6707 29.875H42.5646C42.5646 29.875 37.1385 30.6791 36.6504 39.8985V159.75C36.6504 159.75 37.683 165.454 46.6389 165.921C47.0144 165.94 47.4274 165.959 47.8405 165.959C57.9041 165.959 98.0082 165.959 98.0082 165.959" stroke="#F2A93C" stroke-width="11.9596" stroke-miterlimit="10"/>
<path d="M135.559 30.9409H147.068C147.068 30.9409 150.898 30.4547 150.654 41.0953V80.1233" stroke="#F2A93C" stroke-width="11.9596" stroke-miterlimit="10"/>
<path d="M59.3301 71.1701L65.3382 76.668L80.1895 61.6328" stroke="#3C7C4E" stroke-width="4.78385" stroke-miterlimit="10"/>
<path d="M59.3301 101.842L65.3382 107.34L80.1895 92.3047" stroke="#3C7C4E" stroke-width="4.78385" stroke-miterlimit="10"/>
<path d="M59.3301 133.103L65.3382 138.601L80.1895 123.547" stroke="#3C7C4E" stroke-width="4.78385" stroke-miterlimit="10"/>
<path d="M89.3711 67.5938H128.536" stroke="#3C7C4E" stroke-width="4.78385" stroke-miterlimit="10"/>
<path d="M89.3711 97.9141H108.24" stroke="#3C7C4E" stroke-width="4.78385" stroke-miterlimit="10"/>
<path d="M141.078 94.0938C117.909 94.0938 99.1152 112.794 99.1152 135.889C99.1152 158.985 117.891 177.685 141.078 177.685C164.247 177.685 183.041 158.985 183.041 135.889C183.041 112.794 164.247 94.0938 141.078 94.0938ZM134.976 160.312L114.511 136.675L123.035 129.344L134.526 142.622L158.896 111.56L167.777 118.479L134.976 160.312Z" fill="#F2A93C"/>
</svg>
