<svg width="184" height="182" viewBox="0 0 184 182" fill="none" xmlns="http://www.w3.org/2000/svg">
<g clip-path="url(#clip0_77_26688)">
<path d="M160.281 31.3925C118.12 31.6357 92.2459 10.8594 92.2459 10.8594C92.2459 10.8594 66.3905 31.6357 24.23 31.3925C24.23 31.3925 13.0848 145.297 92.3773 174.414C171.67 145.297 160.281 31.3925 160.281 31.3925Z" stroke="#F2A93C" stroke-width="14.3516" stroke-miterlimit="10"/>
<path d="M143.375 46.6154C111.703 46.8024 92.265 31.1875 92.265 31.1875C92.265 31.1875 72.8265 46.7837 41.1545 46.6154C41.1545 46.6154 32.7862 132.189 92.3588 154.069C151.913 132.189 143.375 46.6154 143.375 46.6154Z" fill="#F2A93C"/>
<path d="M91.0833 59.1797C91.8713 59.1797 92.6781 59.1797 93.4662 59.1797C93.6538 59.2171 93.8602 59.2358 94.0478 59.2919C95.5113 59.6846 97.0499 59.8716 98.4008 60.5074C104.424 63.3312 107.482 68.1372 107.576 74.7572C107.632 78.2355 107.595 81.7138 107.595 85.1921C107.595 85.3978 107.595 85.6222 107.595 85.884C108.814 85.884 109.959 85.884 111.122 85.884C113.674 85.884 115.25 87.4736 115.25 90.0168C115.25 98.6939 115.25 107.371 115.25 116.048C115.25 118.629 113.655 120.199 111.066 120.199C98.5509 120.199 86.036 120.199 73.5211 120.199C70.8942 120.199 69.3369 118.629 69.3369 115.992C69.3369 113.636 69.3369 111.261 69.3369 108.904C69.3369 102.584 69.3369 96.2815 69.3369 89.9607C69.3369 87.4923 70.9505 85.9027 73.4085 85.884C74.1027 85.884 74.7969 85.884 75.5099 85.884C75.9978 85.884 76.4856 85.884 76.9922 85.884C76.9922 82.2187 76.9735 78.6469 77.011 75.0751C77.011 74.0466 77.0485 72.9994 77.2361 71.9895C78.2493 66.342 81.4766 62.4149 86.7865 60.2643C88.1187 59.7033 89.6385 59.5163 91.0833 59.1797ZM84.6288 85.8279C89.7698 85.8279 94.8359 85.8279 99.9206 85.8279C99.9206 85.697 99.9394 85.5848 99.9394 85.4913C99.9394 81.8073 99.9582 78.1046 99.9206 74.4206C99.9206 73.7661 99.8268 73.1116 99.658 72.4758C98.7761 68.9975 95.455 66.6038 91.7962 66.8095C88.2313 66.9965 85.1729 69.7455 84.7601 73.2799C84.5537 75.0003 84.6475 76.7582 84.6288 78.516C84.61 80.9471 84.6288 83.3595 84.6288 85.8279ZM90.3515 106.791C90.3515 107.39 90.3515 107.988 90.3515 108.586C90.3703 109.802 91.1583 110.662 92.2653 110.662C93.3723 110.662 94.1791 109.821 94.1791 108.605C94.1791 107.502 94.1979 106.38 94.1791 105.276C94.1604 104.715 94.2917 104.36 94.7608 103.986C96.4307 102.621 96.5433 100.209 95.0985 98.5817C93.7288 97.0482 91.3459 96.9173 89.7323 98.3199C88.175 99.6663 87.9498 102.21 89.4696 103.631C90.2764 104.398 90.4453 105.146 90.3703 106.099C90.3515 106.324 90.3515 106.548 90.3515 106.791Z" fill="white"/>
</g>
<defs>
<clipPath id="clip0_77_26688">
<rect width="183.895" height="181.087" fill="white"/>
</clipPath>
</defs>
</svg>
