<svg width="32" height="32" viewBox="0 0 32 32" fill="none" xmlns="http://www.w3.org/2000/svg">
<path fill-rule="evenodd" clip-rule="evenodd" d="M26.4017 13.6294C26.575 14.3921 26.667 15.1854 26.667 16.0001C26.667 21.8867 21.887 26.6667 16.0003 26.6667C10.1137 26.6667 5.33366 21.8867 5.33366 16.0001C5.33366 10.1134 10.1137 5.33341 16.0003 5.33341C17.231 5.33341 18.4123 5.54141 19.5123 5.92541C20.207 6.16808 20.967 5.80141 21.2097 5.10675C21.4523 4.41075 21.0857 3.65075 20.391 3.40808C19.015 2.92808 17.5377 2.66675 16.0003 2.66675C8.64166 2.66675 2.66699 8.64141 2.66699 16.0001C2.66699 23.3587 8.64166 29.3334 16.0003 29.3334C23.359 29.3334 29.3337 23.3587 29.3337 16.0001C29.3337 14.9827 29.219 13.9907 29.003 13.0374C28.839 12.3201 28.1243 11.8707 27.407 12.0334C26.6897 12.1961 26.239 12.9107 26.4017 13.6294ZM14.667 16.7814L25.7243 5.72408C26.2443 5.20408 27.0897 5.20408 27.6097 5.72408C28.1297 6.24408 28.1297 7.08941 27.6097 7.60941L15.6097 19.6094C15.0897 20.1307 14.2443 20.1307 13.7243 19.6094L9.72433 15.6094C9.20433 15.0894 9.20433 14.2441 9.72433 13.7241C10.2443 13.2041 11.0897 13.2041 11.6097 13.7241L14.667 16.7814Z" fill="#E67113"/>
</svg>
