<svg width="68" height="82" viewBox="0 0 68 82" fill="none" xmlns="http://www.w3.org/2000/svg">
<path d="M54.3636 42.1441C54.272 39.7548 54.2959 37.3562 54.3171 35.0333C54.3278 33.9894 54.3384 32.9468 54.3384 31.9056L54.3411 29.2015V28.4392C54.3357 25.5385 54.3304 22.5423 54.357 19.5766C50.6661 18.6788 46.9434 17.7464 43.3375 16.8433C40.3931 16.1049 37.349 15.3452 34.3568 14.6081C34.1429 14.5563 33.8587 14.5536 33.6675 14.6001C30.7283 15.3213 27.7387 16.0703 24.8461 16.7955C21.1751 17.7146 17.3846 18.6615 13.6327 19.5726L13.6433 22.0575C13.6778 28.7353 13.7164 35.6429 13.6194 42.4469C13.5517 47.2056 15.0312 51.3467 18.1364 55.1185C21.9348 59.7258 26.979 63.3317 33.9902 66.4488C39.9561 63.8456 44.6882 60.6635 48.4455 56.7269C52.6357 52.3335 54.5721 47.5642 54.3636 42.1441ZM47.294 32.4674C45.4891 34.7836 43.6789 37.0946 41.8779 39.4135C38.9481 43.1906 36.0315 46.9785 33.095 50.7503C31.4428 52.8727 30.1134 52.8501 28.5422 50.6985C25.9444 47.1431 23.3453 43.5891 20.7514 40.031C19.8749 38.8278 19.8842 37.5873 20.7621 36.7718C21.6373 35.959 22.8964 36.0387 24.012 37.0042C25.9178 38.6551 27.8118 40.3219 29.715 41.9781C30.0204 42.2437 30.3498 42.4841 30.9753 42.9795C31.2211 42.5837 31.3831 42.1693 31.6713 41.8798C35.6782 37.8463 39.6945 33.8207 43.7346 29.8204C44.1703 29.3888 44.7361 28.9784 45.3111 28.8243C46.2647 28.568 47.1081 28.9438 47.6021 29.843C48.1148 30.7713 47.9262 31.6559 47.294 32.4674Z" fill="#194783"/>
<path d="M67.9716 41.9927C67.9158 40.5304 67.8999 39.0323 67.9012 37.5395H67.9557L67.953 26.3699C67.9464 22.7149 67.9411 18.9351 67.9783 15.2456C68.0287 10.7379 65.4615 7.4176 61.1105 6.36306C56.8725 5.33642 52.5508 4.25533 48.3712 3.2101L46.5091 2.74392C43.3482 1.95236 40.081 1.13424 36.863 0.344003C35.0142 -0.111544 32.9928 -0.1142 31.1759 0.333378C27.6391 1.20064 24.1196 2.08119 20.8431 2.9033C16.787 3.91932 11.7375 5.18236 6.92967 6.34314C2.5774 7.39236 -0.00712765 10.7459 0.0127942 15.316L0.0327166 19.291C0.0725603 26.9397 0.11506 34.8487 0.00349739 42.593C-0.108065 50.5511 2.4499 57.7588 7.60569 64.0196C13.1692 70.7691 20.3849 75.9369 30.3179 80.2852C31.4163 80.7633 32.6701 81.0156 33.9451 81.0156C35.2546 81.0156 36.5654 80.75 37.7369 80.2467C46.12 76.6381 52.8283 72.1238 58.2484 66.4474C65.0471 59.3207 68.3183 51.093 67.9716 41.9927ZM52.5069 61.3687C47.6845 66.4235 41.6216 70.5288 33.9915 73.8995C25.0147 69.8634 18.5362 65.2056 13.654 59.2849C9.67358 54.4558 7.78233 49.1513 7.86865 43.0645C7.99615 34.0133 7.94834 24.8306 7.90186 15.9508L7.88858 13.422C12.6194 12.2719 17.3847 11.0792 22.0092 9.92111C25.8661 8.95556 29.8531 7.95681 33.7817 6.99392C33.872 6.97135 34.0991 6.96471 34.2625 7.00588C38.1539 7.96346 42.1117 8.95424 45.9394 9.91314C50.5692 11.0726 55.3398 12.2679 60.0945 13.4287C60.0679 17.101 60.0733 20.7971 60.0799 24.3884V24.5929L60.0772 29.074C60.0772 30.4566 60.064 31.8392 60.0507 33.2231C60.0201 36.3083 59.9896 39.4985 60.1091 42.686C60.3747 49.6188 57.8885 55.7295 52.5069 61.3687Z" fill="#194783"/>
</svg>
