<svg width="26" height="26" viewBox="0 0 26 26" fill="none" xmlns="http://www.w3.org/2000/svg">
<g clip-path="url(#clip0_53_1710)">
<path d="M13 26C5.83151 26 0 20.1685 0 13C0 5.83151 5.83151 0 13 0C20.1685 0 26 5.83151 26 13C26 20.1685 20.1685 26 13 26ZM13 1.625C6.72752 1.625 1.625 6.72752 1.625 13C1.625 19.2725 6.72752 24.375 13 24.375C19.2725 24.375 24.375 19.2725 24.375 13C24.375 6.72752 19.2725 1.625 13 1.625Z" fill="#E67113"/>
<path d="M18.6875 13.8125H7.3125C6.864 13.8125 6.5 13.4485 6.5 13C6.5 12.5515 6.864 12.1875 7.3125 12.1875H18.6875C19.136 12.1875 19.5 12.5515 19.5 13C19.5 13.4485 19.136 13.8125 18.6875 13.8125Z" fill="#E67113"/>
<path d="M13 19.5C12.5515 19.5 12.1875 19.136 12.1875 18.6875V7.3125C12.1875 6.864 12.5515 6.5 13 6.5C13.4485 6.5 13.8125 6.864 13.8125 7.3125V18.6875C13.8125 19.136 13.4485 19.5 13 19.5Z" fill="#E67113"/>
</g>
<defs>
<clipPath id="clip0_53_1710">
<rect width="26" height="26" fill="white"/>
</clipPath>
</defs>
</svg>
