<svg width="15" height="20" viewBox="0 0 15 20" fill="none" xmlns="http://www.w3.org/2000/svg">
<path d="M7.5 0C6.66667 0.0260417 5.9375 0.260417 5.3125 0.703125C4.6875 1.17188 4.24479 1.77083 3.98438 2.5H2.5C1.79688 2.52604 1.21094 2.77344 0.742188 3.24219C0.273438 3.71094 0.0260417 4.29688 0 5V17.5C0.0260417 18.2031 0.273438 18.7891 0.742188 19.2578C1.21094 19.7266 1.79688 19.974 2.5 20H12.5C13.2031 19.974 13.7891 19.7266 14.2578 19.2578C14.7266 18.7891 14.974 18.2031 15 17.5V5C14.974 4.29688 14.7266 3.71094 14.2578 3.24219C13.7891 2.77344 13.2031 2.52604 12.5 2.5H11.0547C10.7682 1.77083 10.3125 1.17188 9.6875 0.703125C9.0625 0.260417 8.33333 0.0260417 7.5 0ZM7.5 2.5C7.86458 2.5 8.16406 2.61719 8.39844 2.85156C8.63281 3.08594 8.75 3.38542 8.75 3.75C8.75 4.11458 8.63281 4.41406 8.39844 4.64844C8.16406 4.88281 7.86458 5 7.5 5C7.13542 5 6.83594 4.88281 6.60156 4.64844C6.36719 4.41406 6.25 4.11458 6.25 3.75C6.25 3.38542 6.36719 3.08594 6.60156 2.85156C6.83594 2.61719 7.13542 2.5 7.5 2.5ZM2.8125 10.625C2.86458 10.0521 3.17708 9.73958 3.75 9.6875C4.32292 9.73958 4.63542 10.0521 4.6875 10.625C4.63542 11.1979 4.32292 11.5104 3.75 11.5625C3.17708 11.5104 2.86458 11.1979 2.8125 10.625ZM6.875 10H11.875C12.2656 10.026 12.474 10.2344 12.5 10.625C12.474 11.0156 12.2656 11.224 11.875 11.25H6.875C6.48438 11.224 6.27604 11.0156 6.25 10.625C6.27604 10.2344 6.48438 10.026 6.875 10ZM2.8125 14.375C2.86458 13.8021 3.17708 13.4896 3.75 13.4375C4.32292 13.4896 4.63542 13.8021 4.6875 14.375C4.63542 14.9479 4.32292 15.2604 3.75 15.3125C3.17708 15.2604 2.86458 14.9479 2.8125 14.375ZM6.25 14.375C6.27604 13.9844 6.48438 13.776 6.875 13.75H11.875C12.2656 13.776 12.474 13.9844 12.5 14.375C12.474 14.7656 12.2656 14.974 11.875 15H6.875C6.48438 14.974 6.27604 14.7656 6.25 14.375Z" fill="#E67113"/>
</svg>
