<svg width="25" height="20" viewBox="0 0 25 20" fill="none" xmlns="http://www.w3.org/2000/svg">
<path d="M8.125 13.75C10.4167 13.6979 12.3307 13.0208 13.8672 11.7188C15.4036 10.4427 16.1979 8.82812 16.25 6.875C16.1979 4.92188 15.4036 3.30729 13.8672 2.03125C12.3307 0.729167 10.4167 0.0520833 8.125 0C5.83333 0.0520833 3.91927 0.729167 2.38281 2.03125C0.846354 3.30729 0.0520833 4.92188 0 6.875C0.0260417 8.41146 0.546875 9.7526 1.5625 10.8984C1.40625 11.2891 1.21094 11.6146 0.976562 11.875C0.794271 12.1094 0.625 12.2917 0.46875 12.4219C0.390625 12.5 0.338542 12.5521 0.3125 12.5781C0.286458 12.6042 0.273438 12.6172 0.273438 12.6172H0.234375C0.0260417 12.7995 -0.0390625 13.0339 0.0390625 13.3203C0.143229 13.5807 0.338542 13.724 0.625 13.75C1.51042 13.724 2.31771 13.5677 3.04688 13.2812C3.41146 13.125 3.73698 12.9688 4.02344 12.8125C5.2474 13.4115 6.61458 13.724 8.125 13.75ZM17.5 6.875C17.4219 9.11458 16.5885 10.9635 15 12.4219C13.3854 13.8802 11.4062 14.7266 9.0625 14.9609C9.55729 16.4453 10.5078 17.6432 11.9141 18.5547C13.3203 19.4922 14.974 19.974 16.875 20C18.3854 19.974 19.7526 19.6615 20.9766 19.0625C21.263 19.2188 21.5885 19.375 21.9531 19.5312C22.6823 19.8177 23.4896 19.974 24.375 20C24.6615 19.974 24.8568 19.8307 24.9609 19.5703C25.0391 19.2839 24.9609 19.0495 24.7266 18.8672C24.7266 18.8672 24.7266 18.8542 24.7266 18.8281C24.7005 18.8281 24.6875 18.8281 24.6875 18.8281C24.6615 18.8021 24.6094 18.75 24.5312 18.6719C24.375 18.5417 24.2057 18.3594 24.0234 18.125C23.7891 17.8385 23.5938 17.513 23.4375 17.1484C24.4531 16.0026 24.974 14.6615 25 13.125C24.9479 11.276 24.2188 9.71354 22.8125 8.4375C21.4062 7.16146 19.6224 6.43229 17.4609 6.25C17.487 6.45833 17.5 6.66667 17.5 6.875Z" fill="#E67113"/>
</svg>
