<svg width="15" height="20" viewBox="0 0 15 20" fill="none" xmlns="http://www.w3.org/2000/svg">
<path d="M2.5 0C1.79688 0.0260417 1.21094 0.273438 0.742188 0.742188C0.273438 1.21094 0.0260417 1.79688 0 2.5V17.5C0.0260417 18.2031 0.273438 18.7891 0.742188 19.2578C1.21094 19.7266 1.79688 19.974 2.5 20H12.5C13.2031 19.974 13.7891 19.7266 14.2578 19.2578C14.7266 18.7891 14.974 18.2031 15 17.5V6.25H10C9.63542 6.25 9.33594 6.13281 9.10156 5.89844C8.86719 5.66406 8.75 5.36458 8.75 5V0H2.5ZM10 0V5H15L10 0ZM3.125 2.5H5.625C6.01562 2.52604 6.22396 2.73438 6.25 3.125C6.22396 3.51562 6.01562 3.72396 5.625 3.75H3.125C2.73438 3.72396 2.52604 3.51562 2.5 3.125C2.52604 2.73438 2.73438 2.52604 3.125 2.5ZM3.125 5H5.625C6.01562 5.02604 6.22396 5.23438 6.25 5.625C6.22396 6.01562 6.01562 6.22396 5.625 6.25H3.125C2.73438 6.22396 2.52604 6.01562 2.5 5.625C2.52604 5.23438 2.73438 5.02604 3.125 5ZM5.23438 14.9219C4.94792 15.7552 4.34896 16.1979 3.4375 16.25H3.125C2.73438 16.224 2.52604 16.0156 2.5 15.625C2.52604 15.2344 2.73438 15.026 3.125 15H3.4375C3.75 14.974 3.95833 14.8307 4.0625 14.5703L4.60938 12.6172C4.79167 12.1484 5.13021 11.901 5.625 11.875C6.11979 11.901 6.45833 12.1484 6.64062 12.6172L7.07031 14.1406C7.38281 13.8802 7.73438 13.75 8.125 13.75C8.77604 13.776 9.27083 14.0755 9.60938 14.6484L9.76562 15H11.875C12.2656 15.026 12.474 15.2344 12.5 15.625C12.474 16.0156 12.2656 16.224 11.875 16.25H9.375C9.11458 16.25 8.93229 16.1328 8.82812 15.8984L8.47656 15.2344C8.39844 15.0781 8.28125 15 8.125 15C7.96875 15 7.85156 15.0781 7.77344 15.2344L7.42188 15.8984C7.29167 16.1328 7.09635 16.25 6.83594 16.25C6.54948 16.224 6.36719 16.0807 6.28906 15.8203L5.625 13.6328L5.23438 14.9219Z" fill="#E67113"/>
</svg>
