<svg width="18" height="18" viewBox="0 0 18 18" fill="none" xmlns="http://www.w3.org/2000/svg">
<path d="M6.25 1.875C6.27604 1.35417 6.45833 0.911458 6.79688 0.546875C7.16146 0.208333 7.60417 0.0260417 8.125 0H9.375C9.89583 0.0260417 10.3385 0.208333 10.7031 0.546875C11.0417 0.911458 11.224 1.35417 11.25 1.875V15.625C11.224 16.1458 11.0417 16.5885 10.7031 16.9531C10.3385 17.2917 9.89583 17.474 9.375 17.5H8.125C7.60417 17.474 7.16146 17.2917 6.79688 16.9531C6.45833 16.5885 6.27604 16.1458 6.25 15.625V1.875ZM0 9.375C0.0260417 8.85417 0.208333 8.41146 0.546875 8.04688C0.911458 7.70833 1.35417 7.52604 1.875 7.5H3.125C3.64583 7.52604 4.08854 7.70833 4.45312 8.04688C4.79167 8.41146 4.97396 8.85417 5 9.375V15.625C4.97396 16.1458 4.79167 16.5885 4.45312 16.9531C4.08854 17.2917 3.64583 17.474 3.125 17.5H1.875C1.35417 17.474 0.911458 17.2917 0.546875 16.9531C0.208333 16.5885 0.0260417 16.1458 0 15.625V9.375ZM14.375 2.5H15.625C16.1458 2.52604 16.5885 2.70833 16.9531 3.04688C17.2917 3.41146 17.474 3.85417 17.5 4.375V15.625C17.474 16.1458 17.2917 16.5885 16.9531 16.9531C16.5885 17.2917 16.1458 17.474 15.625 17.5H14.375C13.8542 17.474 13.4115 17.2917 13.0469 16.9531C12.7083 16.5885 12.526 16.1458 12.5 15.625V4.375C12.526 3.85417 12.7083 3.41146 13.0469 3.04688C13.4115 2.70833 13.8542 2.52604 14.375 2.5Z" fill="#E67113"/>
</svg>
