<svg width="28" height="28" viewBox="0 0 28 28" fill="none" xmlns="http://www.w3.org/2000/svg">
<path d="M27.1639 19.234C27.1001 20.6813 26.866 21.6763 26.5308 22.5385C26.1849 23.4537 25.6528 24.273 24.9557 24.9541C24.2745 25.6459 23.4498 26.1834 22.5452 26.5238C21.678 26.8591 20.6882 27.0932 19.2409 27.157C17.7829 27.2262 17.32 27.2422 13.6218 27.2422C9.92373 27.2422 9.46084 27.2262 8.00816 27.1624C6.56088 27.0986 5.56589 26.8643 4.70392 26.5293C3.78854 26.1834 2.96918 25.6513 2.28804 24.9541C1.59631 24.273 1.05901 23.4482 0.71834 22.5437C0.383073 21.6763 0.149031 20.6867 0.0852197 19.2394C0.0160047 17.7813 0 17.3185 0 13.6203C0 9.92222 0.0160047 9.45934 0.0798155 8.00665C0.143626 6.55937 0.377877 5.56438 0.713143 4.70221C1.05901 3.78703 1.59631 2.96767 2.28804 2.28654C2.96918 1.5948 3.79394 1.0573 4.69851 0.716835C5.56589 0.381569 6.55547 0.147526 8.00296 0.0837154C9.45544 0.0196953 9.91853 0.00389862 13.6167 0.00389862C17.3148 0.00389862 17.7777 0.0196953 19.2303 0.0837154C20.6776 0.147526 21.6726 0.381569 22.5346 0.716835C24.3651 1.42457 25.8124 2.87185 26.5202 4.70221C26.8552 5.56958 27.0895 6.55937 27.1533 8.00665C27.2171 9.45934 27.2331 9.92222 27.2331 13.6203C27.2331 17.3185 27.2277 17.7813 27.1639 19.234ZM24.711 8.11307C24.6524 6.78281 24.429 6.06447 24.2427 5.58558C23.785 4.39895 22.8432 3.45717 21.6566 2.99948C21.1777 2.81324 20.4542 2.5898 19.1291 2.53139C17.6924 2.46737 17.2616 2.45157 13.6273 2.45157C9.99294 2.45157 9.55666 2.46737 8.12518 2.53139C6.79492 2.5898 6.07658 2.81324 5.59769 2.99948C5.00718 3.21772 4.46967 3.56359 4.03339 4.01587C3.5811 4.45756 3.23523 4.98967 3.01698 5.58018C2.83075 6.05907 2.60731 6.78281 2.5489 8.10767C2.48488 9.54435 2.46908 9.97543 2.46908 13.6097C2.46908 17.244 2.48488 17.6803 2.5489 19.1116C2.60731 20.4419 2.83075 21.1602 3.01698 21.6391C3.23523 22.2298 3.5811 22.7671 4.03879 23.2036C4.48027 23.6559 5.01237 24.0018 5.60309 24.2198C6.08198 24.406 6.80573 24.6295 8.13058 24.6881C9.56726 24.7519 9.99835 24.7679 13.6324 24.7679C17.2722 24.7679 17.703 24.7519 19.1345 24.6881C20.4648 24.6295 21.1831 24.406 21.662 24.2198C22.2525 24.0018 22.79 23.6559 23.2263 23.2036C23.6786 22.7619 24.0245 22.2298 24.2427 21.6391C24.429 21.1602 24.6524 20.4367 24.711 19.1116C24.7748 17.6749 24.7908 17.244 24.7908 13.6097C24.7908 9.97543 24.7748 9.54975 24.711 8.11307Z" fill="white"/>
<path d="M13.6217 20.6172C9.75873 20.6172 6.62451 17.4832 6.62451 13.62C6.62451 9.75687 9.75873 6.62287 13.6217 6.62287C17.4848 6.62287 20.6188 9.75687 20.6188 13.62C20.6188 17.4832 17.4848 20.6172 13.6217 20.6172ZM13.6217 9.08114C11.1156 9.08114 9.08279 11.1137 9.08279 13.62C9.08279 16.1263 11.1156 18.1589 13.6217 18.1589C16.128 18.1589 18.1606 16.1263 18.1606 13.62C18.1606 11.1137 16.128 9.08114 13.6217 9.08114Z" fill="white"/>
<path d="M22.529 20.8899C22.529 19.9878 21.7975 19.2564 20.8952 19.2564C19.9932 19.2564 19.2617 19.9878 19.2617 20.8899C19.2617 21.7922 19.9932 22.5234 20.8952 22.5234C21.7975 22.5234 22.529 21.7922 22.529 20.8899Z" fill="white"/>
</svg>
