<svg width="28" height="28" viewBox="0 0 28 28" fill="none" xmlns="http://www.w3.org/2000/svg">
<path d="M8.51241 22.5036H4.78841V10.4804H8.51241V22.5036ZM8.88398 6.64979C8.88398 5.44593 7.90726 4.4688 6.70402 4.4688C5.49622 4.4688 4.522 5.44593 4.522 6.64979C4.522 7.85406 5.49622 8.83119 6.70402 8.83119C7.90726 8.83119 8.88398 7.85406 8.88398 6.64979ZM22.4504 15.8889C22.4504 12.6614 21.7685 10.2676 17.9982 10.2676C16.1865 10.2676 14.9704 11.1737 14.4739 12.1159H14.4704V10.4804H10.8528V22.5036H14.4704V16.534C14.4704 14.9706 14.8683 13.4561 16.8062 13.4561C18.7177 13.4561 18.7796 15.2439 18.7796 16.6333V22.5036H22.4504V15.8889ZM27.2384 24.0464V3.192C27.2384 1.43183 25.8065 0 24.0464 0H3.192C1.43183 0 0 1.43183 0 3.192V24.0464C0 25.8065 1.43183 27.2384 3.192 27.2384H24.0464C25.8065 27.2384 27.2384 25.8065 27.2384 24.0464ZM24.0464 2.128C24.633 2.128 25.1104 2.60534 25.1104 3.192V24.0464C25.1104 24.633 24.633 25.1104 24.0464 25.1104H3.192C2.60534 25.1104 2.128 24.633 2.128 24.0464V3.192C2.128 2.60534 2.60534 2.128 3.192 2.128H24.0464Z" fill="white"/>
</svg>
