<svg width="14" height="15" viewBox="0 0 14 15" fill="none" xmlns="http://www.w3.org/2000/svg">
<path fill-rule="evenodd" clip-rule="evenodd" d="M6.54243 0C6.30442 0 6.06138 0.0730605 5.81424 0.166305C5.56402 0.260677 5.25152 0.399397 4.86182 0.572392C4.28903 0.826655 3.53305 1.11847 2.72216 1.34898C2.13041 1.51718 1.65199 1.65317 1.28958 1.7937C0.925369 1.93494 0.595154 2.11013 0.372859 2.40442C0.157562 2.68944 0.0747385 3.02243 0.0366984 3.38154C-1.97029e-05 3.72815 -1.29144e-05 4.16306 5.05935e-07 4.68962V6.66543C5.05935e-07 8.71599 0.925644 10.342 2.04439 11.554C3.15967 12.7622 4.48833 13.584 5.36406 14.0462L5.40633 14.0686C5.77928 14.2657 6.08419 14.4269 6.54243 14.4269C7.00074 14.4269 7.30558 14.2657 7.67853 14.0686L7.72081 14.0462C8.59655 13.584 9.92517 12.7622 11.0405 11.554C12.1592 10.342 13.0849 8.71599 13.0849 6.66543V4.68963C13.0849 4.16307 13.0849 3.72816 13.0482 3.38154C13.0101 3.02243 12.9273 2.68944 12.712 2.40442C12.4897 2.11013 12.1595 1.93494 11.7953 1.7937C11.4329 1.65317 10.9545 1.51719 10.3627 1.34899C9.55188 1.11849 8.79578 0.826648 8.223 0.572379C7.83334 0.39939 7.52084 0.260677 7.27069 0.166305C7.02348 0.0730605 6.78044 0 6.54243 0ZM10.1215 5.8331C10.4708 5.70937 10.6538 5.32589 10.53 4.97656C10.4064 4.62723 10.0229 4.44434 9.67354 4.56806C9.08425 4.77675 8.521 5.17475 8.02672 5.60825C7.52547 6.04782 7.05683 6.5582 6.65872 7.03543C6.36394 7.38879 6.10332 7.7294 5.89181 8.01847C5.69802 7.78637 5.50504 7.6168 5.32098 7.49407C5.13685 7.37134 4.89997 7.21365 4.52938 7.21365C4.15879 7.21365 3.85836 7.51407 3.85836 7.88467C3.85836 8.23407 4.12542 8.52106 4.46655 8.55274C4.60347 8.56549 4.97553 8.93535 5.27125 9.52679C5.37942 9.74306 5.59556 9.88444 5.83712 9.89685C6.07856 9.9092 6.30811 9.79056 6.43782 9.58651C6.43782 9.58651 6.6714 9.23597 6.78225 9.07895C7.00443 8.76424 7.31893 8.33902 7.68927 7.89514C8.06081 7.44971 8.48033 6.99544 8.9116 6.61725C9.34977 6.23296 9.76345 5.95992 10.1215 5.8331Z" fill="#3C7C4E"/>
</svg>
