<svg width="26" height="26" viewBox="0 0 26 26" fill="none" xmlns="http://www.w3.org/2000/svg">
<path d="M20.168 0H5.63393C2.52737 0 0 2.52737 0 5.63393V20.168C0 23.2746 2.52737 25.802 5.63393 25.802H20.168C23.2746 25.802 25.802 23.2746 25.802 20.168V5.63393C25.802 2.52737 23.2746 0 20.168 0ZM24.472 20.168C24.472 22.5412 22.5412 24.472 20.168 24.472H5.63393C3.26073 24.472 1.33 22.5412 1.33 20.168V5.63393C1.33 3.26073 3.26073 1.33 5.63393 1.33H20.168C22.5412 1.33 24.472 3.26073 24.472 5.63393V20.168ZM14.7324 11.681L19.7519 5.4249C19.9817 5.13842 19.9358 4.7199 19.6493 4.49002C19.3629 4.26025 18.9443 4.30606 18.7145 4.59259L13.8799 10.6183L9.04527 4.59259C8.91902 4.43528 8.72825 4.34372 8.52657 4.34372H4.611C4.35521 4.34372 4.12209 4.49045 4.01144 4.72107C3.90078 4.95169 3.93222 5.22535 4.0923 5.42485L11.0695 14.121L6.05006 20.3771C5.82023 20.6636 5.86615 21.0821 6.15257 21.312C6.27536 21.4104 6.4223 21.4583 6.56833 21.4583C6.76304 21.4583 6.95611 21.3731 7.08746 21.2094L11.9221 15.1837L16.7567 21.2094C16.8829 21.3667 17.0737 21.4583 17.2754 21.4583H21.1909H21.192C21.5592 21.4583 21.857 21.1605 21.857 20.7933C21.857 20.6237 21.7936 20.4691 21.6891 20.3516L14.7324 11.681ZM17.5944 20.1283L5.99718 5.67372H8.20753L19.8048 20.1283H17.5944Z" fill="white"/>
</svg>
