<svg width="28" height="28" viewBox="0 0 28 28" fill="none" xmlns="http://www.w3.org/2000/svg">
<g clip-path="url(#clip0_705_1260)">
<path d="M17.8117 12.3985L11.7941 9.10591C11.4481 8.91659 11.0391 8.92366 10.7 9.12461C10.3606 9.32578 10.1582 9.68113 10.1582 10.0756V16.6042C10.1582 16.9967 10.3594 17.3515 10.6964 17.5529C10.8725 17.658 11.0676 17.7108 11.2631 17.7108C11.4423 17.7108 11.6218 17.6665 11.787 17.5776L17.8048 14.3417C18.1621 14.1495 18.385 13.7782 18.3867 13.3723C18.3882 12.9664 18.1679 12.5934 17.8117 12.3985ZM11.7544 15.7829V10.9035L16.2519 13.3644L11.7544 15.7829Z" fill="white"/>
<path d="M27.0379 8.16612L27.0367 8.15366C27.0136 7.93441 26.784 5.9843 25.836 4.99242C24.7402 3.82576 23.4979 3.68403 22.9004 3.61607C22.851 3.61046 22.8056 3.60527 22.7651 3.59987L22.7175 3.59488C19.1166 3.33303 13.6784 3.29729 13.6239 3.29708L13.6191 3.29688L13.6144 3.29708C13.5599 3.29729 8.12169 3.33303 4.48831 3.59488L4.44031 3.59987C4.40166 3.60506 4.35905 3.60984 4.31271 3.61524C3.72211 3.68341 2.49311 3.82534 1.39421 5.03419C0.491266 6.01548 0.230255 7.92382 0.203447 8.13828L0.20033 8.16612C0.192226 8.25735 0 10.4292 0 12.6096V14.6478C0 16.8282 0.192226 19 0.20033 19.0914L0.201785 19.1052C0.224852 19.3209 0.454276 21.2352 1.39795 22.2275C2.42828 23.3551 3.73105 23.5043 4.43179 23.5845C4.54255 23.5972 4.63794 23.608 4.70298 23.6195L4.76595 23.6282C6.8451 23.826 13.3639 23.9235 13.6403 23.9274L13.6486 23.9276L13.657 23.9274C13.7114 23.9272 19.1494 23.8915 22.7504 23.6296L22.798 23.6247C22.8435 23.6186 22.8946 23.6132 22.9507 23.6074C23.538 23.5451 24.7603 23.4156 25.8441 22.2232C26.747 21.2417 27.0082 19.3333 27.0348 19.1191L27.0379 19.0912C27.046 18.9998 27.2385 16.8282 27.2385 14.6478V12.6096C27.2383 10.4292 27.046 8.25756 27.0379 8.16612ZM25.6421 14.6478C25.6421 16.6659 25.4658 18.7442 25.4492 18.935C25.3815 19.4605 25.1061 20.6679 24.6662 21.1461C23.9879 21.8923 23.2911 21.9663 22.7824 22.0201C22.7209 22.0266 22.6639 22.0328 22.6124 22.0393C19.1295 22.2911 13.8966 22.3298 13.6555 22.3312C13.3851 22.3273 6.96169 22.229 4.94591 22.0417C4.84263 22.0249 4.73104 22.012 4.61342 21.9987C4.01679 21.9304 3.20009 21.8368 2.57208 21.1461L2.55733 21.1303C2.12508 20.68 1.85763 19.5509 1.78967 18.9412C1.777 18.797 1.5962 16.6941 1.5962 14.6478V12.6096C1.5962 10.5938 1.77201 8.51774 1.78905 8.32302C1.86989 7.70395 2.15043 6.56971 2.57208 6.11128C3.27116 5.34237 4.00827 5.25717 4.49579 5.20085C4.54234 5.19545 4.58578 5.19046 4.62588 5.18527C8.15951 4.93215 13.43 4.89454 13.6191 4.89308C13.8082 4.89433 19.0769 4.93215 22.5791 5.18527C22.6222 5.19067 22.6691 5.19607 22.7196 5.20189C23.2211 5.25904 23.979 5.34549 24.6745 6.08738L24.6809 6.09424C25.1132 6.54457 25.3806 7.69335 25.4486 8.31533C25.4606 8.45145 25.6421 10.5589 25.6421 12.6096V14.6478Z" fill="white"/>
</g>
<defs>
<clipPath id="clip0_705_1260">
<rect width="27.2384" height="27.2384" fill="white"/>
</clipPath>
</defs>
</svg>
