<svg width="255" height="40" viewBox="0 0 255 40" fill="none" xmlns="http://www.w3.org/2000/svg">
<path d="M14.1503 4.92188C6.33203 4.97183 0 11.3413 0 19.1971C0 27.0777 6.38199 33.4597 14.2377 33.4597C17.922 33.4597 21.2816 32.0485 23.8169 29.738C24.3415 29.2634 24.8161 28.7513 25.2657 28.2143H22.3432C21.956 27.7397 21.5939 27.2526 21.2816 26.7405H26.3148C26.627 26.2535 26.9018 25.7414 27.1391 25.2169H20.4449C20.22 24.7298 20.0202 24.2302 19.8454 23.7182H27.7261C28.2007 22.2944 28.4629 20.7707 28.4629 19.1971C28.4629 18.148 28.3505 17.1238 28.1382 16.1372H19.4332C19.5456 15.6251 19.683 15.1256 19.8329 14.6385H27.7136C27.5387 14.1139 27.3264 13.6019 27.1016 13.1148H20.4324C20.6697 12.6027 20.9444 12.1032 21.2442 11.6161H26.2773C25.9401 11.0791 25.5779 10.567 25.1783 10.0924H22.3807C22.8178 9.58035 23.2924 9.09327 23.8045 8.65615C21.2691 6.34565 17.9095 4.93436 14.2252 4.93436C14.2127 4.92187 14.1878 4.92188 14.1503 4.92188Z" fill="#931B1D"/>
<path d="M47.5848 19.2002C47.5848 27.0809 41.2153 33.4754 33.3471 33.4754C25.4789 33.4754 19.1094 27.0934 19.1094 19.2127C19.1094 11.332 25.4789 4.93752 33.3471 4.93752C41.2028 4.92503 47.5848 11.307 47.5848 19.2002Z" fill="#F16622"/>
<path d="M47.5848 19.3611C47.5848 27.2418 41.2153 33.6363 33.3471 33.6363C25.4789 33.6363 19.1094 27.2543 19.1094 19.3736V19.3611C19.1094 11.4804 25.4789 5.08594 33.3471 5.08594C41.2028 5.08594 47.5848 11.4679 47.5848 19.3611C47.5848 19.3486 47.5848 19.3486 47.5848 19.3611Z" fill="#F7981D"/>
<path d="M14.1503 5.08594C6.33203 5.13589 0 11.5054 0 19.3611C0 27.2418 6.38199 33.6363 14.2377 33.6363C17.922 33.6363 21.2816 32.225 23.8169 29.9145C24.3415 29.4399 24.8161 28.9279 25.2657 28.3908H22.3432C21.956 27.9162 21.5939 27.4291 21.2816 26.9171H26.3148C26.627 26.43 26.9018 25.918 27.1391 25.3934H20.4449C20.22 24.9063 20.0202 24.4068 19.8454 23.8947H27.7261C28.2007 22.4709 28.4629 20.9472 28.4629 19.3736C28.4629 18.3245 28.3505 17.3004 28.1382 16.3137H19.4332C19.5456 15.8017 19.683 15.3021 19.8329 14.815H27.7136C27.5387 14.2905 27.3264 13.7784 27.1016 13.2914H20.4324C20.6697 12.7793 20.9444 12.2797 21.2442 11.7926H26.2773C25.9401 11.2556 25.5779 10.7436 25.1783 10.269H22.3807C22.8178 9.75691 23.2924 9.26983 23.8045 8.8327C21.2691 6.5222 17.9095 5.11092 14.2252 5.11092C14.2127 5.08594 14.1878 5.08594 14.1503 5.08594Z" fill="#CB2026"/>
<path d="M19.3587 22.9974L19.5461 21.711C19.4461 21.711 19.2838 21.7609 19.1589 21.7609C18.6343 21.7609 18.5719 21.4862 18.6094 21.2739L19.034 18.6386H19.8333L20.0206 17.2149H19.2588L19.4087 16.3281H17.91C17.8725 16.3656 17.0107 21.3238 17.0107 21.9233C17.0107 22.8225 17.5103 23.2222 18.2222 23.2097C18.7842 23.1847 19.2088 23.0348 19.3587 22.9974Z" fill="white"/>
<path d="M19.8457 20.5282C19.8457 22.6764 21.257 23.1884 22.4684 23.1884C23.58 23.1884 24.0671 22.9387 24.0671 22.9387L24.3293 21.4774C24.3293 21.4774 23.4801 21.8521 22.7182 21.8521C21.0946 21.8521 21.3819 20.6406 21.3819 20.6406H24.4667C24.4667 20.6406 24.6665 19.654 24.6665 19.2543C24.6665 18.2552 24.167 17.0312 22.5059 17.0312C20.9697 17.0312 19.8457 18.6673 19.8457 20.5282ZM22.5059 18.3926C23.3552 18.3926 23.2053 19.3542 23.2053 19.4292H21.5193C21.5193 19.3293 21.6816 18.3926 22.5059 18.3926Z" fill="white"/>
<path d="M32.0981 22.9952L32.3728 21.3342C32.3728 21.3342 31.6235 21.7088 31.1239 21.7088C30.0498 21.7088 29.6127 20.8846 29.6127 19.9978C29.6127 18.1994 30.5369 17.2127 31.5735 17.2127C32.3478 17.2127 32.9598 17.6498 32.9598 17.6498L33.2096 16.0387C33.2096 16.0387 32.2854 15.6641 31.4986 15.6641C29.7501 15.6641 28.0391 17.1877 28.0391 20.0478C28.0391 21.9461 28.9633 23.1951 30.7742 23.1951C31.2863 23.1951 32.0981 22.9952 32.0981 22.9952Z" fill="white"/>
<path d="M11.0276 17.0469C9.99104 17.0469 9.19173 17.3841 9.19173 17.3841L8.96692 18.6955C8.96692 18.6955 9.62885 18.4332 10.6155 18.4332C11.1775 18.4332 11.5897 18.4956 11.5897 18.9577C11.5897 19.2325 11.5397 19.3449 11.5397 19.3449C11.5397 19.3449 11.0901 19.3074 10.8903 19.3074C9.57889 19.3074 8.20508 19.8694 8.20508 21.5555C8.20508 22.8918 9.1043 23.1916 9.66632 23.1916C10.7404 23.1916 11.19 22.4922 11.2275 22.4922L11.1775 23.0792H12.5139L13.1133 18.8953C13.1133 17.0968 11.5647 17.0469 11.0276 17.0469ZM11.3524 20.4439C11.3773 20.7062 11.19 21.8927 10.2783 21.8927C9.8037 21.8927 9.67881 21.5305 9.67881 21.3182C9.67881 20.906 9.90361 20.4065 11.0152 20.4065C11.2774 20.4065 11.3024 20.4439 11.3524 20.4439Z" fill="white"/>
<path d="M14.5257 23.1447C14.8629 23.1447 16.8237 23.2322 16.8237 21.2089C16.8237 19.323 15.0128 19.6977 15.0128 18.9359C15.0128 18.5612 15.3125 18.4363 15.8495 18.4363C16.0619 18.4363 16.8861 18.5112 16.8861 18.5112L17.0735 17.1749C17.0735 17.1749 16.5364 17.0625 15.6747 17.0625C14.5507 17.0625 13.4141 17.5121 13.4141 19.0483C13.4141 20.7843 15.3125 20.6094 15.3125 21.3463C15.3125 21.8334 14.788 21.8708 14.3758 21.8708C13.6639 21.8708 13.027 21.6336 13.027 21.6336L12.8271 22.9574C12.8646 22.9699 13.2518 23.1447 14.5257 23.1447Z" fill="white"/>
<path d="M44.6609 15.8438L44.3362 17.8795C44.3362 17.8795 43.7617 17.0927 42.8749 17.0927C41.4886 17.0927 40.3271 18.7662 40.3271 20.7021C40.3271 21.951 40.9391 23.1624 42.213 23.1624C43.1247 23.1624 43.6243 22.5255 43.6243 22.5255L43.5619 23.0625H45.0356L46.1971 15.8438H44.6609ZM43.9615 19.8153C43.9615 20.6146 43.5619 21.6887 42.7376 21.6887C42.188 21.6887 41.9383 21.2266 41.9383 20.5147C41.9383 19.3407 42.4628 18.5539 43.1372 18.5539C43.6743 18.5539 43.9615 18.9286 43.9615 19.8153Z" fill="white"/>
<path d="M2.82257 23.075L3.74677 17.6172L3.88415 23.075H4.93324L6.88156 17.6172L6.01981 23.075H7.56847L8.76744 15.8438H6.3695L4.8708 20.2774L4.78337 15.8438H2.57278L1.36133 23.075H2.82257Z" fill="white"/>
<path d="M26.1774 23.0792C26.6145 20.5689 26.7019 18.5207 27.751 18.8953C27.9383 17.9212 28.1132 17.5465 28.313 17.1344C28.313 17.1344 28.2131 17.1094 28.0258 17.1094C27.3513 17.1094 26.8393 18.0336 26.8393 18.0336L26.9767 17.1843H25.5654L24.6162 23.0667H26.1774V23.0792Z" fill="white"/>
<path d="M35.6067 17.0469C34.5701 17.0469 33.7708 17.3841 33.7708 17.3841L33.546 18.6955C33.546 18.6955 34.2079 18.4332 35.1946 18.4332C35.7566 18.4332 36.1688 18.4956 36.1688 18.9577C36.1688 19.2325 36.1188 19.3449 36.1188 19.3449C36.1188 19.3449 35.6692 19.3074 35.4694 19.3074C34.158 19.3074 32.7842 19.8694 32.7842 21.5555C32.7842 22.8918 33.6834 23.1916 34.2454 23.1916C35.3195 23.1916 35.7816 22.4922 35.7941 22.4922L35.7441 23.0792H37.0805L37.68 18.8953C37.68 17.0968 36.1438 17.0469 35.6067 17.0469ZM35.9315 20.4439C35.9564 20.7062 35.7691 21.8927 34.8574 21.8927C34.3828 21.8927 34.2704 21.5305 34.2704 21.3182C34.2704 20.906 34.4952 20.4065 35.6067 20.4065C35.8565 20.4065 35.8815 20.4439 35.9315 20.4439Z" fill="white"/>
<path d="M38.9039 23.0792C39.341 20.5689 39.4285 18.5207 40.4776 18.8953C40.6649 17.9212 40.8398 17.5465 41.0396 17.1344C41.0396 17.1344 40.9397 17.1094 40.7523 17.1094C40.0779 17.1094 39.5659 18.0336 39.5659 18.0336L39.7032 17.1843H38.292L37.3428 23.0667H38.9039V23.0792Z" fill="white"/>
<g clip-path="url(#clip0_77_26520)">
<path d="M111.577 33.2429C111.577 34.8857 110.23 36.2175 108.57 36.2175H63.7177C62.0571 36.2176 60.7109 34.8857 60.7109 33.2429V4.49013C60.7109 2.8474 62.0571 1.51562 63.7177 1.51562H108.57C110.23 1.51562 111.577 2.8474 111.577 4.49013V33.2429Z" fill="#306FC5"/>
<path opacity="0.15" d="M62.8486 33.2429V4.49013C62.8486 2.8474 64.1949 1.51562 65.8555 1.51562H63.7176C62.0571 1.51562 60.7109 2.8473 60.7109 4.49013V33.243C60.7109 34.8858 62.0571 36.2176 63.7177 36.2176H65.8556C64.195 36.2176 62.8486 34.8857 62.8486 33.2429Z" fill="#202121"/>
<path d="M68.123 15.4135H69.6429L68.8831 13.5L68.123 15.4135Z" fill="white"/>
<path d="M76.2051 21.8281V22.7167H78.7612V23.6736H76.2051V24.6989H79.0374L80.3498 23.2635L79.1065 21.8281H76.2051Z" fill="white"/>
<path d="M96.1689 13.5L95.3398 15.4135H96.9289L96.1689 13.5Z" fill="white"/>
<path d="M83.596 25.2545V21.3594L81.7998 23.273L83.596 25.2545Z" fill="white"/>
<path d="M86.9813 22.4434C86.9121 22.0334 86.6355 21.8281 86.2209 21.8281H84.7705V23.0582H86.2904C86.7048 23.0583 86.9813 22.8534 86.9813 22.4434Z" fill="white"/>
<path d="M91.816 22.9314C91.9542 22.8629 92.0236 22.6577 92.0236 22.4531C92.0927 22.18 91.9542 22.0431 91.816 21.9747C91.6782 21.9063 91.4707 21.9062 91.2638 21.9062H89.8818V22.9998H91.2637C91.4706 22.9998 91.6781 22.9998 91.816 22.9314Z" fill="white"/>
<path d="M101.763 11.7188V12.5388L101.349 11.7188H98.1027V12.5388L97.688 11.7188H93.2669C92.5071 11.7188 91.8851 11.8556 91.3327 12.1289V11.7188H88.2242V11.7872V12.1289C87.8789 11.8557 87.4644 11.7188 86.9118 11.7188H75.7899L75.0297 13.4272L74.27 11.7188H71.7832H70.7469V12.5388L70.4015 11.7188H70.3324H67.362L65.9802 14.9305L64.3915 18.4156L64.3623 18.4841H64.3915H67.9146H67.9588L67.9838 18.4156L68.3985 17.3908H69.2965L69.7109 18.4841H73.7172V18.4156V17.6641L74.0628 18.484H76.066L76.4112 17.6641V18.4156V18.4841H78H85.9443H86.0135V16.7073H86.1519C86.2899 16.7073 86.2899 16.7073 86.2899 16.9124V18.4157H91.2637V18.0057C91.6782 18.211 92.2995 18.4157 93.1286 18.4157H95.2013L95.6157 17.3226H96.5826L96.997 18.4157H101.004V17.7325V17.3909L101.626 18.4157H101.763H101.833H104.872V11.7188H101.764H101.763ZM78.3457 17.4593H77.6547H77.2403V17.0496V13.7006L77.1712 13.8574V13.8555L75.5642 17.4593H75.5133H75.1438H74.5461L72.8882 13.7006V17.4593H70.5397L70.0562 16.4343H67.7072L67.2236 17.4593H66.0093L68.0528 12.6756H69.7797L71.7139 17.2541V12.6756H72.1282H73.544L73.5766 12.7441H73.579L74.4506 14.6206L75.0765 16.0266L75.0986 15.9557L76.4801 12.6757H78.3456V17.4593H78.3457ZM83.1123 13.7006H80.4181V14.589H83.0432V15.5456H80.4181V16.5027H83.1123V17.5274H79.2439V12.6757H83.1123V13.7006ZM88.0394 15.4628C88.0412 15.4643 88.0435 15.4654 88.0457 15.4669C88.0718 15.4942 88.0942 15.5216 88.1133 15.5479C88.2456 15.7195 88.3526 15.9747 88.3579 16.3489C88.3583 16.3554 88.3586 16.3618 88.359 16.3683C88.359 16.372 88.3597 16.3753 88.3597 16.3791C88.3597 16.3813 88.3595 16.383 88.3595 16.385C88.3611 16.4227 88.3621 16.4611 88.3621 16.5027V17.4594H87.3261V16.9125C87.3261 16.6392 87.3261 16.229 87.1186 15.9557C87.0533 15.8912 86.9873 15.8486 86.9153 15.8183C86.8118 15.752 86.6156 15.7509 86.2899 15.7509H85.0461V17.4594H83.872V12.6757H86.4973C87.1186 12.6757 87.5333 12.6757 87.8788 12.8807C88.2173 13.0818 88.4217 13.4152 88.4295 13.9433C88.4135 14.6705 87.9416 15.0696 87.6023 15.2041C87.6023 15.2041 87.8328 15.25 88.0394 15.4628ZM90.3656 17.4593H89.1912V12.6756H90.3656V17.4593ZM103.836 17.4593H102.316L100.106 13.8372V16.8441L100.099 16.837V17.4622H98.9315V17.4594H97.757L97.3426 16.4344H94.9246L94.5101 17.5275H93.1976C92.6454 17.5275 91.9541 17.391 91.5398 16.981C91.1253 16.571 90.9183 16.0242 90.9183 15.136C90.9183 14.4527 91.0563 13.7688 91.5398 13.2223C91.885 12.812 92.507 12.6757 93.2667 12.6757H94.3722V13.7006H93.2667C92.8522 13.7006 92.6454 13.7687 92.3685 13.9741C92.1616 14.1791 92.0233 14.589 92.0233 15.0673C92.0233 15.6141 92.0925 15.9557 92.3685 16.229C92.5762 16.4344 92.8523 16.5028 93.1976 16.5028H93.6811L95.2698 12.7443H95.961H96.9969L98.9314 17.3228V17.0893V15.5458V15.4093V12.7444H100.658L102.661 16.0927V12.7444H103.836V17.4595H103.836V17.4593Z" fill="white"/>
<path d="M87.0553 14.6705C87.0754 14.6492 87.0937 14.625 87.1092 14.5973C87.1718 14.4993 87.2435 14.3228 87.2049 14.0819C87.2033 14.0598 87.1992 14.0393 87.1945 14.0196C87.1932 14.0141 87.1934 14.0093 87.1919 14.0038L87.1912 14.0039C87.1568 13.8868 87.0691 13.8149 86.9816 13.7712C86.8431 13.7031 86.6358 13.7031 86.4287 13.7031H85.0469V14.7967H86.4287C86.6358 14.7967 86.8432 14.7967 86.9816 14.7282C87.0023 14.7178 87.0208 14.7036 87.0386 14.6876L87.0388 14.6885C87.0388 14.6885 87.0459 14.6811 87.0553 14.6705Z" fill="white"/>
<path d="M107.912 24.2977C107.912 23.8194 107.774 23.3409 107.567 22.9993V19.9243H107.564V19.7189C107.564 19.7189 104.668 19.7189 104.237 19.7189C103.807 19.7189 103.284 20.1289 103.284 20.1289V19.7189H100.106C99.6225 19.7189 99.0012 19.8558 98.7245 20.1289V19.7189H93.0602V19.9243V20.1288C92.646 19.7873 91.8855 19.7188 91.5404 19.7188H87.81V19.9242V20.1287C87.4647 19.7872 86.6353 19.7188 86.2207 19.7188H82.0765L81.1092 20.7439L80.2111 19.7188H79.9219H79.4513H73.9941V19.9241V20.4639V26.6211H80.0732L81.072 25.6328L81.9378 26.6211H82.0072H85.5099H85.6687H85.7378H85.8066V25.9378V25.0495H86.1522C86.6353 25.0495 87.2573 25.0495 87.7409 24.8442V26.5525V26.6895H90.8495V26.5525V24.9126H90.9873C91.1949 24.9126 91.1949 24.9126 91.1949 25.1176V26.5525V26.6895H100.589C101.212 26.6895 101.833 26.5525 102.178 26.2791V26.5525V26.6895H105.149C105.77 26.6895 106.392 26.6212 106.807 26.3476C107.443 25.9702 107.844 25.302 107.903 24.505C107.906 24.4814 107.91 24.4578 107.912 24.4342L107.908 24.4303C107.91 24.3861 107.912 24.3424 107.912 24.2977ZM86.1523 23.8878H84.7704V24.0923V24.5026V24.9127V25.6644H82.4998L81.1783 24.1608L81.1737 24.1659L81.1092 24.0923L79.5895 25.6644H75.1684V20.8809H79.6586L80.8853 22.2101L81.1432 22.4884L81.1782 22.4526L82.6291 20.881H86.2902C87.0007 20.881 87.7964 21.0545 88.0979 21.7696C88.1342 21.9112 88.1552 22.0687 88.1552 22.2476C88.1552 23.6142 87.1881 23.8878 86.1523 23.8878ZM93.0602 23.8193C93.1982 24.0238 93.2673 24.2976 93.2673 24.7079V25.6643H92.0931V25.0495C92.0931 24.7757 92.0931 24.2976 91.8856 24.0923C91.7478 23.8878 91.4711 23.8878 91.057 23.8878H89.8136V25.6644H88.6394V20.8125H91.2642C91.8165 20.8125 92.3 20.8125 92.646 21.0173C92.9911 21.2225 93.2673 21.5642 93.2673 22.1109C93.2673 22.8625 92.784 23.2725 92.4385 23.4094C92.784 23.5455 92.9911 23.6826 93.0602 23.8193ZM97.8268 21.8371H95.1324V22.7256H97.7575V23.6825H95.1324V24.6394H97.8268V25.6643H93.9584V20.8124H97.8268V21.8371ZM100.728 25.6644H98.5173V24.6395H100.728C100.935 24.6395 101.073 24.6395 101.212 24.5027C101.281 24.4342 101.35 24.2977 101.35 24.1609C101.35 24.0239 101.281 23.8879 101.212 23.8194C101.142 23.7511 101.004 23.6827 100.797 23.6827C99.6916 23.6143 98.3791 23.6827 98.3791 22.1794C98.3791 21.496 98.7936 20.7442 100.037 20.7442H102.317V21.9057H100.175C99.9682 21.9057 99.8298 21.9057 99.6915 21.9741C99.5537 22.0426 99.5537 22.1794 99.5537 22.316C99.5537 22.5211 99.6915 22.5895 99.8297 22.6573C99.9682 22.7258 100.106 22.7258 100.244 22.7258H100.866C101.488 22.7258 101.902 22.8625 102.178 23.1359C102.386 23.341 102.524 23.6827 102.524 24.1609C102.524 25.1857 101.902 25.6644 100.728 25.6644ZM106.669 25.1857C106.393 25.4594 105.909 25.6644 105.218 25.6644H103.008V24.6395H105.218C105.425 24.6395 105.564 24.6395 105.702 24.5027C105.771 24.4342 105.84 24.2977 105.84 24.1609C105.84 24.0239 105.771 23.8879 105.702 23.8194C105.633 23.7511 105.495 23.6827 105.287 23.6827C104.182 23.6143 102.869 23.6827 102.869 22.1795C102.869 21.53 103.245 20.9433 104.171 20.7691C104.282 20.7539 104.399 20.7442 104.527 20.7442H106.807V21.9057H105.287H104.735H104.666C104.458 21.9057 104.32 21.9057 104.182 21.9741C104.113 22.0426 104.044 22.1794 104.044 22.316C104.044 22.5211 104.113 22.5895 104.32 22.6573C104.458 22.7258 104.596 22.7258 104.735 22.7258H104.803H105.356C105.658 22.7258 105.886 22.7626 106.095 22.8353C106.287 22.9038 106.92 23.1841 107.062 23.9157C107.074 23.9924 107.083 24.0724 107.083 24.1609C107.083 24.5711 106.945 24.9127 106.669 25.1857Z" fill="white"/>
</g>
<path d="M222.314 9.90121C219.31 9.90121 216.935 10.6971 215.118 11.0605L214.559 15.6223C215.468 15.1862 218.332 14.3925 220.708 14.3173C223.084 14.2455 224.481 14.7522 223.992 16.7804C216.936 16.7804 212.184 18.2266 211.206 22.7888C209.808 30.609 218.402 30.3926 221.826 26.9888L221.408 28.8699H227.695L230.42 16.4148C231.535 11.1311 226.716 9.82938 222.314 9.90121ZM222.733 22.6442C222.384 24.309 221.058 25.0333 219.451 25.1073C218.053 25.1791 216.796 23.9456 217.704 22.4984C218.403 21.2686 220.36 20.9791 221.547 20.9791C222.036 20.9791 222.595 20.9791 223.085 20.9791C222.943 21.558 222.872 22.0647 222.733 22.6442Z" fill="#1A80AD"/>
<path d="M235.799 4.97656L230.597 28.8705H236.983L242.25 4.97656H235.799Z" fill="#1A80AD"/>
<path d="M206.453 5.04688H194.76L189.578 28.8681H196.369L198.121 20.9764H202.952C207.714 20.9764 211.635 18.0805 212.685 13.1562C213.876 7.58087 209.815 5.04688 206.453 5.04688ZM206.246 13.1562C205.825 14.9658 204.004 16.413 202.252 16.413H199.102L200.503 9.89694H203.863C205.615 9.89816 206.664 11.3456 206.246 13.1562Z" fill="#1A80AD"/>
<path d="M161.076 9.90902C158.108 9.90902 155.761 10.7049 154.034 11.0683L153.484 15.6292C154.313 15.1931 157.142 14.3994 159.489 14.3242C161.836 14.2524 163.217 14.7591 162.8 16.7873C155.831 16.7873 151.139 18.2335 150.172 22.7957C148.791 30.6159 157.279 30.3995 160.592 26.9956L160.18 28.8768H166.46L169.151 16.4217C170.254 11.1389 165.422 9.8372 161.076 9.90902ZM161.559 22.652C161.213 24.3168 159.831 25.0411 158.247 25.1151C156.867 25.1869 155.693 23.9534 156.591 22.5062C157.279 21.2764 159.212 20.9869 160.317 20.9869C160.87 20.9869 161.352 20.9869 161.906 20.9869C161.764 21.5658 161.628 22.0725 161.559 22.652Z" fill="#1A5B80"/>
<path d="M171.887 10.25H178.167L179.18 21.3431L185.324 10.25H191.805L176.884 36.7988H169.862L174.451 28.9947L171.887 10.25Z" fill="#1A5B80"/>
<path d="M145.456 5.05469H133.732L128.536 28.8759H135.416L137.101 20.9842H142.015C146.719 20.9842 150.65 18.0883 151.703 13.164C152.897 7.58868 148.896 5.05469 145.456 5.05469ZM145.245 13.164C144.824 14.9736 143.07 16.4208 141.314 16.4208H138.085L139.56 9.90476H142.929C144.614 9.90597 145.737 11.3534 145.245 13.164Z" fill="#1A5B80"/>
<path d="M243.627 8.07155V5.253H242.575V4.875H245.11V5.253H244.053V8.07155H243.627Z" fill="#1A5B80"/>
<path d="M245.529 8.07155V4.875H246.164L246.922 7.1366C246.993 7.34721 247.042 7.50334 247.075 7.60682C247.111 7.49178 247.168 7.32103 247.243 7.09673L248.013 4.875H248.582V8.07155H248.175V5.39543L247.242 8.07155H246.863L245.936 5.351V8.07155H245.529Z" fill="#1A5B80"/>
<defs>
<clipPath id="clip0_77_26520">
<rect width="50.8656" height="37.739" fill="white" transform="translate(60.7109)"/>
</clipPath>
</defs>
</svg>
