<svg width="38" height="38" viewBox="0 0 38 38" fill="none" xmlns="http://www.w3.org/2000/svg">
<path d="M18.8694 36.7973C28.7696 36.7973 36.7954 28.7716 36.7954 18.8713C36.7954 8.97106 28.7696 0.945312 18.8694 0.945312C8.96911 0.945312 0.943359 8.97106 0.943359 18.8713C0.943359 28.7716 8.96911 36.7973 18.8694 36.7973Z" fill="#F2A93C"/>
<path d="M25.3925 17.2326H24.8819V13.5597C24.8819 10.2442 22.1846 7.54688 18.8691 7.54688C15.5537 7.54688 12.8563 10.2442 12.8563 13.5597V17.2326H12.3458C10.8753 17.2326 9.68457 18.4259 9.68457 19.8939V27.5265C9.68457 28.997 10.8753 30.1903 12.3458 30.1903H25.3925C26.863 30.1903 28.0537 28.997 28.0537 27.5265V19.8939C28.0537 18.4259 26.863 17.2326 25.3925 17.2326ZM20.0853 24.163V26.3332C20.0853 27.0024 19.5433 27.5494 18.8691 27.5494C18.1949 27.5494 17.653 27.0024 17.653 26.3332V24.163C16.989 23.756 16.5488 23.0232 16.5488 22.1913C16.5488 20.9116 17.5894 19.8735 18.8691 19.8735C20.1489 19.8735 21.1894 20.9116 21.1894 22.1913C21.1894 23.0232 20.7493 23.756 20.0853 24.163ZM22.2194 17.2326H15.5189V13.5597C15.5189 11.7123 17.0217 10.2094 18.8691 10.2094C20.7165 10.2094 22.2194 11.7123 22.2194 13.5597V17.2326Z" fill="white"/>
</svg>
