<svg width="86" height="32" viewBox="0 0 86 32" fill="none" xmlns="http://www.w3.org/2000/svg">
<g clip-path="url(#clip0_77_26516)">
<path d="M33.4142 3.20656L22.4601 29.1743H15.3106L9.92384 8.45268C9.59222 7.1748 9.30881 6.70976 8.31443 6.16711C6.68558 5.29224 4.00628 4.47161 1.64062 3.96046L1.80619 3.20672H13.309C14.7761 3.20672 16.0951 4.17885 16.4267 5.8547L19.275 20.8843L26.3102 3.20672L33.4142 3.20656ZM61.4192 20.6922C61.4509 13.8423 51.8786 13.4695 51.9474 10.4051C51.9661 9.46962 52.8585 8.47979 54.8129 8.2299C55.7834 8.10163 58.4542 8.00761 61.4813 9.38827L62.6677 3.88414C61.0391 3.29684 58.9455 2.73438 56.3435 2.73438C49.6606 2.73438 44.9559 6.26583 44.9162 11.3187C44.8724 15.0553 48.2728 17.1405 50.8377 18.3849C53.4714 19.6582 54.352 20.4712 54.3427 21.6132C54.3255 23.3561 52.2413 24.1178 50.2973 24.1521C46.8969 24.2047 44.9247 23.2392 43.3496 22.5105L42.1254 28.2038C43.7031 28.9234 46.6242 29.5482 49.6472 29.5851C56.7502 29.5848 61.3968 26.091 61.4192 20.6922ZM79.0675 29.1744H85.3227L79.8646 3.20672H74.09C72.7925 3.20672 71.6985 3.95851 71.2112 5.11022L61.0709 29.1744H68.1684L69.5772 25.2963H78.253L79.0675 29.1744ZM71.5224 19.9739L75.0831 10.2234L77.1315 19.9739H71.5224ZM43.0771 3.20656L37.4825 29.1743H30.7195L36.3154 3.20656H43.0771Z" fill="#1A2ADF"/>
</g>
<defs>
<clipPath id="clip0_77_26516">
<rect width="85.3229" height="31.1757" fill="white"/>
</clipPath>
</defs>
</svg>
